<?xml version="1.0" standalone="no"?>
<!DOCTYPE svg PUBLIC "-//W3C//DTD SVG 20010904//EN"
 "http://www.w3.org/TR/2001/REC-SVG-20010904/DTD/svg10.dtd">
<svg version="1.0" xmlns="http://www.w3.org/2000/svg"
 width="512.000000pt" height="512.000000pt" viewBox="0 0 512.000000 512.000000"
 preserveAspectRatio="xMidYMid meet">

<g transform="translate(0.000000,512.000000) scale(0.100000,-0.100000)"
fill="#000000" stroke="none">
<path d="M1251 4289 c-313 -61 -600 -325 -816 -749 -184 -363 -308 -789 -372
-1285 -14 -109 -18 -209 -18 -450 0 -294 2 -318 28 -467 102 -578 288 -892
566 -958 88 -21 179 -9 269 35 67 34 100 62 274 233 204 201 226 231 213 291
-8 37 -46 78 -79 87 -66 16 -88 2 -274 -185 -203 -205 -244 -235 -317 -235
-190 -1 -351 304 -430 814 -25 162 -31 502 -11 700 44 464 162 900 341 1265
187 381 387 591 629 660 43 13 83 16 150 13 117 -6 182 -31 456 -183 465 -257
614 -305 816 -260 142 31 260 85 598 274 265 148 334 174 451 175 168 1 300
-60 450 -209 407 -405 710 -1405 665 -2195 -14 -244 -46 -422 -111 -626 -86
-271 -210 -424 -342 -424 -67 0 -143 57 -311 233 -289 305 -543 490 -790 576
-368 129 -1017 137 -1410 17 -99 -31 -132 -54 -147 -106 -15 -48 -1 -89 43
-125 36 -30 75 -32 151 -6 199 69 564 98 877 71 442 -39 660 -155 1080 -580
203 -205 249 -245 328 -284 192 -97 429 -20 576 187 126 178 216 445 273 807
25 162 25 624 0 830 -79 637 -276 1213 -546 1595 -77 109 -240 271 -335 333
-160 104 -317 149 -491 139 -151 -8 -227 -38 -548 -214 -260 -143 -334 -179
-436 -213 -183 -62 -267 -37 -718 212 -327 179 -435 219 -597 217 -50 -1 -111
-5 -135 -10z"/>
<path d="M1315 3266 c-149 -29 -264 -94 -373 -211 -121 -129 -176 -272 -176
-455 0 -198 57 -333 199 -475 142 -142 277 -199 475 -199 198 0 333 57 475
199 142 142 199 277 199 475 0 198 -57 333 -199 475 -98 98 -183 149 -300 180
-86 22 -217 27 -300 11z m285 -255 c109 -42 208 -140 252 -251 31 -79 31 -241
0 -320 -44 -110 -142 -208 -252 -252 -44 -18 -75 -22 -160 -22 -121 0 -182 19
-265 82 -288 219 -202 679 145 777 75 20 207 14 280 -14z"/>
<path d="M3623 3221 c-59 -37 -63 -57 -63 -291 l0 -210 -212 0 c-194 0 -216
-2 -245 -20 -34 -21 -63 -66 -63 -100 0 -34 29 -79 63 -100 29 -18 51 -20 244
-20 l212 0 3 -225 3 -225 33 -32 c28 -28 39 -33 82 -33 43 0 54 5 82 33 l33
32 3 225 3 224 224 3 225 3 32 33 c28 28 33 39 33 82 0 43 -5 54 -33 82 l-32
33 -225 3 -224 3 -3 224 -3 225 -31 31 c-40 40 -96 48 -141 20z"/>
</g>
</svg>
